Coordinates
version=1
nRows=21
nColumns=12
inDegrees=yes

Units are S.I. units (second, meters, Newtons, ...)
Angles are in degrees

endheader
time	SC_y	SC_z	SC_x	AC_y	AC_z	AC_x	GH_y	GH_z	GH_yy	EL_x	PS_y
       0.0               -51.1          28.86          63.08          36.35         -1.091          14.56          74.25          84.92          4.094          108.6          13.57
   0.02424               -51.1          28.85          63.07          36.35          -1.09          14.56          74.24          84.91          4.102          108.6          13.57
   0.04849               -51.1          28.85          63.06          36.35         -1.089          14.55          74.22          84.91          4.111          108.5          13.57
   0.07273               -51.1          28.85          63.05          36.35         -1.087          14.55           74.2           84.9           4.12          108.5          13.57
   0.09698               -51.1          28.85          63.04          36.35         -1.086          14.54          74.18           84.9          4.129          108.5          13.57
    0.1212               -51.1          28.85          63.03          36.35         -1.085          14.54          74.16          84.89           4.14          108.5          13.57
    0.1455               -51.1          28.84          63.02          36.35         -1.083          14.53          74.13          84.88          4.151          108.5          13.58
    0.1697              -51.11          28.84           63.0          36.35         -1.082          14.53          74.11          84.87          4.163          108.5          13.58
     0.194              -51.11          28.84          62.99          36.36          -1.08          14.52          74.08          84.86          4.175          108.5          13.58
    0.2182              -51.11          28.84          62.97          36.36         -1.078          14.52          74.05          84.86          4.189          108.5          13.58
    0.2424              -51.11          28.83          62.96          36.36         -1.076          14.51          74.02          84.85          4.204          108.5          13.58
    0.2667              -51.12          28.83          62.94          36.36         -1.074           14.5          73.99          84.84          4.219          108.5          13.58
    0.2909              -51.12          28.83          62.92          36.36         -1.071           14.5          73.95          84.82          4.236          108.5          13.59
    0.3152              -51.12          28.82           62.9          36.36         -1.069          14.49          73.91          84.81          4.254          108.5          13.59
    0.3394              -51.12          28.82          62.88          36.37         -1.066          14.48          73.87           84.8          4.274          108.4          13.59
    0.3637              -51.13          28.81          62.86          36.37         -1.063          14.47          73.82          84.79          4.296          108.4          13.59
    0.3879              -51.13          28.81          62.83          36.37          -1.06          14.46          73.77          84.77          4.319          108.4           13.6
    0.4121              -51.13           28.8           62.8          36.37         -1.056          14.45          73.72          84.75          4.344          108.4           13.6
    0.4364              -51.14           28.8          62.77          36.38         -1.053          14.43          73.66          84.73          4.372          108.4           13.6
    0.4606              -51.14          28.79          62.74          36.38         -1.048          14.42          73.59          84.71          4.403          108.4          13.61
    0.4849              -51.15          28.78           62.7          36.38         -1.044           14.4          73.52          84.69          4.436          108.3          13.61
